custom-analysis
version=1
nRows=5
nColumns=98
inDegrees=no

This file contains tibia displacement and acting force.

Units are S.I. units (seconds, meters, Newtons, ...)
Angles are in degrees.

endheader
time	APT	SIT	knee_angle	aACL_R_force	pACL_R_force	aPCL_R_force	pPCL_R_force	aMCL_R_force	mMCL_R_force	pMCL_R_force	aLCL_R_force	mLCL_R_force	pLCL_R_force	aPCL_L_force	pPCL_L_force	aMCL_L_force	aLCL_L_force	aACL_R_length	pACL_R_length	aPCL_R_length	pPCL_R_length	aMCL_R_length	mMCL_R_length	pMCL_R_length	aLCL_R_length	mLCL_R_length	pLCL_R_length	aPCL_L_length	pPCL_L_length	aMCL_L_length	aLCL_L_length	aACL_R_strain	pACL_R_strain	aPCL_R_strain	pPCL_R_strain	aMCL_R_strain	mMCL_R_strain	pMCL_R_strain	aLCL_R_strain	mLCL_R_strain	pLCL_R_strain	aPCL_L_strain	pPCL_L_strain	aMCL_L_strain	aLCL_L_strain	femur_lat_meniscii_r.femur_lat_r.force.X	femur_lat_meniscii_r.femur_lat_r.force.Y	femur_lat_meniscii_r.femur_lat_r.force.Z	femur_lat_meniscii_r.femur_lat_r.torque.X	femur_lat_meniscii_r.femur_lat_r.torque.Y	femur_lat_meniscii_r.femur_lat_r.torque.Z	femur_lat_meniscii_r.meniscus_lat_r.force.X	femur_lat_meniscii_r.meniscus_lat_r.force.Y	femur_lat_meniscii_r.meniscus_lat_r.force.Z	femur_lat_meniscii_r.meniscus_lat_r.torque.X	femur_lat_meniscii_r.meniscus_lat_r.torque.Y	femur_lat_meniscii_r.meniscus_lat_r.torque.Z	femur_med_meniscii_r.femur_med_r.force.X	femur_med_meniscii_r.femur_med_r.force.Y	femur_med_meniscii_r.femur_med_r.force.Z	femur_med_meniscii_r.femur_med_r.torque.X	femur_med_meniscii_r.femur_med_r.torque.Y	femur_med_meniscii_r.femur_med_r.torque.Z	femur_med_meniscii_r.meniscus_med_r.force.X	femur_med_meniscii_r.meniscus_med_r.force.Y	femur_med_meniscii_r.meniscus_med_r.force.Z	femur_med_meniscii_r.meniscus_med_r.torque.X	femur_med_meniscii_r.meniscus_med_r.torque.Y	femur_med_meniscii_r.meniscus_med_r.torque.Z	femur_med_tibia_r.tibia_upper_r.force.X	femur_med_tibia_r.tibia_upper_r.force.Y	femur_med_tibia_r.tibia_upper_r.force.Z	femur_med_tibia_r.tibia_upper_r.torque.X	femur_med_tibia_r.tibia_upper_r.torque.Y	femur_med_tibia_r.tibia_upper_r.torque.Z	femur_med_tibia_r.femur_med_r.force.X	femur_med_tibia_r.femur_med_r.force.Y	femur_med_tibia_r.femur_med_r.force.Z	femur_med_tibia_r.femur_med_r.torque.X	femur_med_tibia_r.femur_med_r.torque.Y	femur_med_tibia_r.femur_med_r.torque.Z	femur_lat_tibia_r.tibia_upper_r.force.X	femur_lat_tibia_r.tibia_upper_r.force.Y	femur_lat_tibia_r.tibia_upper_r.force.Z	femur_lat_tibia_r.tibia_upper_r.torque.X	femur_lat_tibia_r.tibia_upper_r.torque.Y	femur_lat_tibia_r.tibia_upper_r.torque.Z	femur_lat_tibia_r.femur_lat_r.force.X	femur_lat_tibia_r.femur_lat_r.force.Y	femur_lat_tibia_r.femur_lat_r.force.Z	femur_lat_tibia_r.femur_lat_r.torque.X	femur_lat_tibia_r.femur_lat_r.torque.Y	femur_lat_tibia_r.femur_lat_r.torque.Z	femur_lat_meniscii_force_r	femur_med_meniscii_force_r	femur_lat_tibia_force_r	femur_med_tibia_force_r
      0.20974723	      0.01352356	      0.02615503	     81.35969315	      0.80503342	      0.00000000	    964.31606872	    609.48205600	     24.17514749	     10.38346572	      0.00000000	      0.00000000	      0.00000000	      0.00000000	      0.00000000	      0.00000000	      0.00000001	      0.00000000	      0.03103865	      0.02443449	      0.03716558	      0.03395098	      0.06147054	      0.05991492	      0.05656385	      0.05015949	      0.04472087	      0.03972025	      0.01525851	      0.01651186	      0.06550154	      0.04489616	      0.00106932	     -0.02490982	      0.19521543	      0.13594784	      0.02404816	      0.00203063	     -0.03685043	     -0.10393005	     -0.20593065	     -0.24115007	      0.00000079	     -0.32847694	      0.00000060	     -0.00000086	    180.60023983	    108.91563451	      8.60013593	     -5.91496152	      4.18506203	     71.72797504	   -180.60023983	   -108.91563451	     -8.60013593	      2.80619401	     -4.88764226	      2.45296034	      0.03991861	      0.00119773	     -0.02505485	      0.00997759	     -0.00062101	      0.01586667	     -0.03991861	     -0.00119773	      0.02505485	     -0.00009314	      0.00119689	     -0.00009075	   -886.31995946	   -366.05361775	    315.63868753	     -8.26278078	     21.85179567	      2.31513742	    886.31995946	    366.05361775	   -315.63868753	    133.69821654	    -15.59335291	    357.16822262	   -291.90284170	   -130.36022306	    -78.92482705	      4.22786634	    -10.04913657	      0.96296309	    291.90284170	    130.36022306	     78.92482705	    -35.01614632	      7.14978951	    117.69609896	    211.07587357	      0.04714526	    329.28738979	   1009.54747421
      0.20975469	      0.01352325	      0.02615645	     81.36375405	     -0.39750893	      0.00000000	    967.66453445	    618.59192762	     27.43695840	     14.44285265	      0.00000000	      0.00000000	      0.00000000	      0.00000000	      0.00000000	      0.00000000	      0.00000001	      0.00000000	      0.03103866	      0.02443471	      0.03716593	      0.03395127	      0.06147076	      0.05991504	      0.05656403	      0.05015910	      0.04472043	      0.03971988	      0.01525851	      0.01651186	      0.06550154	      0.04489616	      0.00106951	     -0.02490117	      0.19522665	      0.13595744	      0.02405186	      0.00203268	     -0.03684733	     -0.10393695	     -0.20593849	     -0.24115722	      0.00000079	     -0.32847694	      0.00000060	     -0.00000086	    165.12736022	    109.23105374	     12.52737420	     -7.51268169	      3.86668430	     65.45854279	   -165.12736022	   -109.23105374	    -12.52737420	      2.85587998	     -4.63562384	      2.62894602	      0.03563733	      0.00147373	     -0.02248091	      0.00895660	     -0.00055539	      0.01416145	     -0.03563733	     -0.00147373	      0.02248091	     -0.00008653	      0.00107258	     -0.00006647	   -880.19474252	   -373.48612442	    310.77103589	     -8.27787667	     21.59757954	      2.68349525	    880.19474252	    373.48612442	   -310.77103589	    131.81341380	    -15.45520772	    354.58731870	   -289.52978660	   -133.28935780	    -80.65222526	      4.32198685	    -10.06282153	      1.11639515	    289.52978660	    133.28935780	     80.65222526	    -35.78401362	      7.12267146	    116.68673525	    198.38196313	      0.04216139	    328.78310734	   1005.39211586
      0.20976216	      0.01352287	      0.02615783	     81.36780317	     -1.29021013	      0.00000000	    970.19635176	    625.42590863	     29.88052774	     17.48195225	      0.00000000	      0.00000000	      0.00000000	      0.00000000	      0.00000000	      0.00000000	      0.00000001	      0.00000000	      0.03103864	      0.02443492	      0.03716635	      0.03395163	      0.06147102	      0.05991521	      0.05656426	      0.05015876	      0.04472004	      0.03971957	      0.01525851	      0.01651186	      0.06550154	      0.04489616	      0.00106897	     -0.02489276	      0.19524006	      0.13596943	      0.02405612	      0.00203544	     -0.03684341	     -0.10394301	     -0.20594544	     -0.24116324	      0.00000079	     -0.32847694	      0.00000060	     -0.00000086	    153.57635208	    109.03787231	     15.24783465	     -8.60975283	      3.62611906	     60.78368260	   -153.57635208	   -109.03787231	    -15.24783465	      2.87952356	     -4.43886888	      2.74325351	      0.03235553	      0.00161356	     -0.02048762	      0.00816518	     -0.00050491	      0.01285493	     -0.03235553	     -0.00161356	      0.02048762	     -0.00008085	      0.00097657	     -0.00005042	   -875.39379476	   -378.78736337	    307.12050058	     -8.28602135	     21.40456956	      2.95253109	    875.39379476	    378.78736337	   -307.12050058	    130.39609474	    -15.34868492	    352.57011519	   -287.79384256	   -135.16983352	    -81.81385553	      4.38331862	    -10.06869663	      1.21833455	    287.79384256	    135.16983352	     81.81385553	    -36.29868651	      7.10144751	    115.95165908	    188.96414998	      0.03833049	    328.31339703	   1002.05646768
      0.20979475	      0.01352092	      0.02616367	     81.38543059	     -2.49830625	      0.00000000	    974.00077959	    635.16842008	     33.31033490	     21.73857099	      0.00000000	      0.00000000	      0.00000000	      0.00000000	      0.00000000	      0.00000000	      0.00000001	      0.00000000	      0.03103847	      0.02443582	      0.03716846	      0.03395350	      0.06147228	      0.05991611	      0.05656547	      0.05015748	      0.04471855	      0.03971844	      0.01525851	      0.01651186	      0.06550154	      0.04489616	      0.00106342	     -0.02485699	      0.19530806	      0.13603220	      0.02407715	      0.00205052	     -0.03682274	     -0.10396582	     -0.20597188	     -0.24118464	      0.00000079	     -0.32847694	      0.00000060	     -0.00000086	    137.26118834	    108.05205903	     18.62335857	     -9.95415071	      3.28104334	     54.18931356	   -137.26118834	   -108.05205903	    -18.62335857	      2.89003482	     -4.14308254	      2.87740976	      0.02723895	      0.00169697	     -0.01734422	      0.00691568	     -0.00042589	      0.01081908	     -0.02723895	     -0.00169697	      0.01734422	     -0.00007076	      0.00082561	     -0.00003008	   -866.97295719	   -385.03042725	    301.65653382	     -8.27703572	     21.10134085	      3.31292788	    866.97295719	    385.03042725	   -301.65653382	    128.25037120	    -15.17148117	    349.06403706	   -284.90825774	   -137.85294732	    -83.37217767	      4.46846943	    -10.06383440	      1.37219419	    284.90825774	    137.85294732	     83.37217767	    -36.99186105	      7.06143254	    114.73455816	    175.67786078	      0.03233670	    327.30271986	    995.43317345
      0.20982734	      0.01351884	      0.02616942	     81.40303627	     -2.51455983	      0.00000000	    974.57168509	    635.95118029	     33.50481348	     21.97058573	      0.00000000	      0.00000000	      0.00000000	      0.00000000	      0.00000000	      0.00000000	      0.00000001	      0.00000000	      0.03103826	      0.02443671	      0.03717070	      0.03395551	      0.06147361	      0.05991709	      0.05656678	      0.05015630	      0.04471716	      0.03971744	      0.01525851	      0.01651186	      0.06550154	      0.04489616	      0.00105662	     -0.02482149	      0.19538011	      0.13609942	      0.02409924	      0.00206692	     -0.03680054	     -0.10398704	     -0.20599661	     -0.24120391	      0.00000079	     -0.32847694	      0.00000060	     -0.00000086	    136.14053603	    107.88760485	     18.50646924	     -9.90392768	      3.25385109	     53.73677050	   -136.14053603	   -107.88760485	    -18.50646924	      2.88543408	     -4.10992193	      2.88456014	      0.02620142	      0.00166971	     -0.01669873	      0.00665860	     -0.00040979	      0.01040656	     -0.02620142	     -0.00166971	      0.01669873	     -0.00006824	      0.00079473	     -0.00002735	   -864.11981136	   -384.13865045	    300.74619043	     -8.25112574	     21.03390311	      3.32605701	    864.11981136	    384.13865045	   -300.74619043	    127.86501652	    -15.12099653	    347.90734860	   -284.22346198	   -137.73429676	    -83.23581768	      4.46279667	    -10.04264303	      1.38112055	    284.22346198	    137.73429676	     83.23581768	    -36.93312198	      7.04536547	    114.45430294	    174.68963974	      0.03111511	    326.62197444	    992.32747730
